{
  "asset": {
    "version": "2.0",
    "generator": "Scorpius original low-poly asset generator",
    "extras": {
      "ticket": "HPA-632",
      "license": "Project original"
    }
  },
  "scene": 0,
  "scenes": [
    {
      "name": "Vanguard",
      "nodes": [
        0,
        1,
        2,
        3,
        4,
        5,
        6
      ]
    },
    {
      "name": "Gunner",
      "nodes": [
        7,
        8,
        9,
        10,
        11,
        12,
        13
      ]
    },
    {
      "name": "Interceptor",
      "nodes": [
        14,
        15,
        16,
        17,
        18,
        19,
        20
      ]
    },
    {
      "name": "Rifleman",
      "nodes": [
        21,
        22,
        23,
        24,
        25
      ]
    },
    {
      "name": "Striker",
      "nodes": [
        26,
        27,
        28,
        29,
        30,
        31
      ]
    },
    {
      "name": "Artillery",
      "nodes": [
        32,
        33,
        34,
        35,
        36
      ]
    },
    {
      "name": "BlockingTerrain",
      "nodes": [
        37,
        38,
        39
      ]
    },
    {
      "name": "Explosive",
      "nodes": [
        40,
        41,
        42
      ]
    },
    {
      "name": "Hazard",
      "nodes": [
        43,
        44,
        45
      ]
    },
    {
      "name": "ImpactMarker",
      "nodes": [
        46,
        47,
        48
      ]
    },
    {
      "name": "Flanker",
      "nodes": [
        49
      ]
    }
  ],
  "nodes": [
    {
      "mesh": 0,
      "translation": [
        -0.27,
        0.18,
        0.0
      ],
      "scale": [
        0.22,
        0.36,
        0.28
      ],
      "name": "Left Leg"
    },
    {
      "mesh": 0,
      "translation": [
        0.27,
        0.18,
        0.0
      ],
      "scale": [
        0.22,
        0.36,
        0.28
      ],
      "name": "Right Leg"
    },
    {
      "mesh": 0,
      "translation": [
        0.0,
        0.72,
        0.0
      ],
      "scale": [
        0.72,
        0.56,
        0.5
      ],
      "name": "Armored Torso"
    },
    {
      "mesh": 0,
      "translation": [
        -0.52,
        0.78,
        0.0
      ],
      "scale": [
        0.28,
        0.42,
        0.42
      ],
      "name": "Left Guard"
    },
    {
      "mesh": 0,
      "translation": [
        0.52,
        0.78,
        0.0
      ],
      "scale": [
        0.28,
        0.42,
        0.42
      ],
      "name": "Right Guard"
    },
    {
      "mesh": 0,
      "translation": [
        0.0,
        1.15,
        0.0
      ],
      "scale": [
        0.32,
        0.3,
        0.32
      ],
      "name": "Head"
    },
    {
      "mesh": 0,
      "translation": [
        0.0,
        0.82,
        -0.38
      ],
      "scale": [
        0.3,
        0.44,
        0.18
      ],
      "name": "Reactor Pack"
    },
    {
      "mesh": 1,
      "translation": [
        -0.2,
        0.2,
        0.0
      ],
      "scale": [
        0.16,
        0.4,
        0.2
      ],
      "name": "Left Leg"
    },
    {
      "mesh": 1,
      "translation": [
        0.2,
        0.2,
        0.0
      ],
      "scale": [
        0.16,
        0.4,
        0.2
      ],
      "name": "Right Leg"
    },
    {
      "mesh": 1,
      "translation": [
        0.0,
        0.7,
        0.0
      ],
      "scale": [
        0.48,
        0.52,
        0.36
      ],
      "name": "Torso"
    },
    {
      "mesh": 1,
      "translation": [
        0.0,
        1.1,
        0.0
      ],
      "scale": [
        0.26,
        0.26,
        0.26
      ],
      "name": "Sensor Head"
    },
    {
      "mesh": 1,
      "translation": [
        0.62,
        0.82,
        0.02
      ],
      "scale": [
        0.18,
        0.2,
        0.95
      ],
      "name": "Rail Barrel"
    },
    {
      "mesh": 1,
      "translation": [
        0.36,
        0.7,
        0.0
      ],
      "scale": [
        0.18,
        0.34,
        0.26
      ],
      "name": "Weapon Mount"
    },
    {
      "mesh": 1,
      "translation": [
        -0.38,
        0.72,
        -0.1
      ],
      "scale": [
        0.24,
        0.48,
        0.22
      ],
      "name": "Missile Rack"
    },
    {
      "mesh": 2,
      "translation": [
        -0.18,
        0.2,
        0.0
      ],
      "scale": [
        0.14,
        0.4,
        0.18
      ],
      "name": "Left Leg"
    },
    {
      "mesh": 2,
      "translation": [
        0.18,
        0.2,
        0.0
      ],
      "scale": [
        0.14,
        0.4,
        0.18
      ],
      "name": "Right Leg"
    },
    {
      "mesh": 2,
      "translation": [
        0.0,
        0.68,
        0.0
      ],
      "scale": [
        0.42,
        0.48,
        0.32
      ],
      "name": "Torso"
    },
    {
      "mesh": 2,
      "translation": [
        0.0,
        1.06,
        0.0
      ],
      "scale": [
        0.24,
        0.26,
        0.24
      ],
      "name": "Head"
    },
    {
      "mesh": 2,
      "translation": [
        -0.52,
        0.78,
        -0.14
      ],
      "scale": [
        0.58,
        0.1,
        0.4
      ],
      "name": "Left Wing"
    },
    {
      "mesh": 2,
      "translation": [
        0.52,
        0.78,
        -0.14
      ],
      "scale": [
        0.58,
        0.1,
        0.4
      ],
      "name": "Right Wing"
    },
    {
      "mesh": 2,
      "translation": [
        0.0,
        0.56,
        -0.42
      ],
      "scale": [
        0.26,
        0.22,
        0.42
      ],
      "name": "Vector Thruster"
    },
    {
      "mesh": 3,
      "translation": [
        -0.18,
        0.18,
        0.0
      ],
      "scale": [
        0.16,
        0.36,
        0.2
      ],
      "name": "Left Leg"
    },
    {
      "mesh": 3,
      "translation": [
        0.18,
        0.18,
        0.0
      ],
      "scale": [
        0.16,
        0.36,
        0.2
      ],
      "name": "Right Leg"
    },
    {
      "mesh": 3,
      "translation": [
        0.0,
        0.62,
        0.0
      ],
      "scale": [
        0.44,
        0.46,
        0.34
      ],
      "name": "Torso"
    },
    {
      "mesh": 3,
      "translation": [
        0.0,
        0.98,
        0.0
      ],
      "scale": [
        0.24,
        0.24,
        0.24
      ],
      "name": "Head"
    },
    {
      "mesh": 3,
      "translation": [
        0.45,
        0.66,
        0.02
      ],
      "scale": [
        0.16,
        0.16,
        0.72
      ],
      "name": "Service Rifle"
    },
    {
      "mesh": 4,
      "translation": [
        -0.22,
        0.2,
        0.0
      ],
      "scale": [
        0.2,
        0.4,
        0.24
      ],
      "name": "Left Leg"
    },
    {
      "mesh": 4,
      "translation": [
        0.22,
        0.2,
        0.0
      ],
      "scale": [
        0.2,
        0.4,
        0.24
      ],
      "name": "Right Leg"
    },
    {
      "mesh": 4,
      "translation": [
        0.0,
        0.68,
        0.0
      ],
      "scale": [
        0.58,
        0.5,
        0.4
      ],
      "name": "Torso"
    },
    {
      "mesh": 4,
      "translation": [
        0.0,
        1.06,
        0.02
      ],
      "scale": [
        0.26,
        0.24,
        0.3
      ],
      "name": "Head"
    },
    {
      "mesh": 4,
      "translation": [
        -0.52,
        0.65,
        0.02
      ],
      "scale": [
        0.16,
        0.18,
        0.82
      ],
      "name": "Left Shock Claw"
    },
    {
      "mesh": 4,
      "translation": [
        0.52,
        0.65,
        0.02
      ],
      "scale": [
        0.16,
        0.18,
        0.82
      ],
      "name": "Right Shock Claw"
    },
    {
      "mesh": 5,
      "translation": [
        -0.28,
        0.18,
        0.0
      ],
      "scale": [
        0.26,
        0.36,
        0.34
      ],
      "name": "Left Tread"
    },
    {
      "mesh": 5,
      "translation": [
        0.28,
        0.18,
        0.0
      ],
      "scale": [
        0.26,
        0.36,
        0.34
      ],
      "name": "Right Tread"
    },
    {
      "mesh": 5,
      "translation": [
        0.0,
        0.62,
        0.0
      ],
      "scale": [
        0.72,
        0.48,
        0.56
      ],
      "name": "Gun Platform"
    },
    {
      "mesh": 5,
      "translation": [
        0.0,
        0.96,
        0.0
      ],
      "scale": [
        0.34,
        0.24,
        0.34
      ],
      "name": "Sensor Block"
    },
    {
      "mesh": 5,
      "translation": [
        0.0,
        0.88,
        -0.72
      ],
      "scale": [
        0.28,
        0.28,
        1.05
      ],
      "name": "Siege Mortar"
    },
    {
      "mesh": 6,
      "translation": [
        -0.24,
        0.26,
        0.08
      ],
      "scale": [
        0.54,
        0.52,
        0.62
      ],
      "name": "Rock A"
    },
    {
      "mesh": 6,
      "translation": [
        0.26,
        0.18,
        -0.1
      ],
      "scale": [
        0.5,
        0.36,
        0.48
      ],
      "name": "Rock B"
    },
    {
      "mesh": 6,
      "translation": [
        0.05,
        0.58,
        0.02
      ],
      "scale": [
        0.36,
        0.52,
        0.38
      ],
      "name": "Rock C"
    },
    {
      "mesh": 7,
      "translation": [
        0.0,
        0.28,
        0.0
      ],
      "scale": [
        0.46,
        0.56,
        0.46
      ],
      "name": "Fuel Cell"
    },
    {
      "mesh": 9,
      "translation": [
        0.0,
        0.28,
        0.0
      ],
      "scale": [
        0.5,
        0.1,
        0.5
      ],
      "name": "Warning Band"
    },
    {
      "mesh": 7,
      "translation": [
        0.0,
        0.62,
        0.0
      ],
      "scale": [
        0.28,
        0.14,
        0.28
      ],
      "name": "Cap"
    },
    {
      "mesh": 8,
      "translation": [
        0.0,
        0.06,
        0.0
      ],
      "scale": [
        0.9,
        0.12,
        0.9
      ],
      "name": "Hazard Pad"
    },
    {
      "mesh": 8,
      "translation": [
        -0.25,
        0.24,
        -0.2
      ],
      "scale": [
        0.12,
        0.36,
        0.12
      ],
      "name": "Vent A"
    },
    {
      "mesh": 8,
      "translation": [
        0.25,
        0.2,
        0.2
      ],
      "scale": [
        0.1,
        0.3,
        0.1
      ],
      "name": "Vent B"
    },
    {
      "mesh": 9,
      "translation": [
        0.0,
        0.3,
        0.0
      ],
      "scale": [
        0.7,
        0.1,
        0.1
      ],
      "name": "Impact X"
    },
    {
      "mesh": 9,
      "translation": [
        0.0,
        0.3,
        0.0
      ],
      "scale": [
        0.1,
        0.7,
        0.1
      ],
      "name": "Impact Y"
    },
    {
      "mesh": 9,
      "translation": [
        0.0,
        0.3,
        0.0
      ],
      "scale": [
        0.1,
        0.1,
        0.7
      ],
      "name": "Impact Z"
    },
    {
      "scale": [
        0.72,
        0.72,
        0.72
      ],
      "name": "Flanker Root",
      "children": [
        50,
        51,
        52,
        53,
        54,
        55
      ]
    },
    {
      "mesh": 10,
      "translation": [
        -0.16,
        0.2,
        0.0
      ],
      "scale": [
        0.12,
        0.42,
        0.16
      ],
      "name": "Left Leg"
    },
    {
      "mesh": 10,
      "translation": [
        0.16,
        0.2,
        0.0
      ],
      "scale": [
        0.12,
        0.42,
        0.16
      ],
      "name": "Right Leg"
    },
    {
      "mesh": 10,
      "translation": [
        0.0,
        0.7,
        0.0
      ],
      "scale": [
        0.36,
        0.52,
        0.3
      ],
      "name": "Torso"
    },
    {
      "mesh": 10,
      "translation": [
        0.0,
        1.1,
        0.0
      ],
      "scale": [
        0.22,
        0.24,
        0.22
      ],
      "name": "Head"
    },
    {
      "mesh": 10,
      "translation": [
        -0.5,
        0.82,
        0.08
      ],
      "scale": [
        0.62,
        0.08,
        0.28
      ],
      "name": "Left Wing Blade"
    },
    {
      "mesh": 10,
      "translation": [
        0.5,
        0.82,
        0.08
      ],
      "scale": [
        0.62,
        0.08,
        0.28
      ],
      "name": "Right Wing Blade"
    }
  ],
  "meshes": [
    {
      "name": "Vanguard Navy",
      "primitives": [
        {
          "attributes": {
            "POSITION": 0,
            "NORMAL": 1
          },
          "indices": 2,
          "material": 0
        }
      ]
    },
    {
      "name": "Gunner Ochre",
      "primitives": [
        {
          "attributes": {
            "POSITION": 0,
            "NORMAL": 1
          },
          "indices": 2,
          "material": 1
        }
      ]
    },
    {
      "name": "Interceptor Cyan",
      "primitives": [
        {
          "attributes": {
            "POSITION": 0,
            "NORMAL": 1
          },
          "indices": 2,
          "material": 2
        }
      ]
    },
    {
      "name": "Rifleman Gray",
      "primitives": [
        {
          "attributes": {
            "POSITION": 0,
            "NORMAL": 1
          },
          "indices": 2,
          "material": 3
        }
      ]
    },
    {
      "name": "Striker Crimson",
      "primitives": [
        {
          "attributes": {
            "POSITION": 0,
            "NORMAL": 1
          },
          "indices": 2,
          "material": 4
        }
      ]
    },
    {
      "name": "Artillery Violet",
      "primitives": [
        {
          "attributes": {
            "POSITION": 0,
            "NORMAL": 1
          },
          "indices": 2,
          "material": 5
        }
      ]
    },
    {
      "name": "Terrain Slate",
      "primitives": [
        {
          "attributes": {
            "POSITION": 0,
            "NORMAL": 1
          },
          "indices": 2,
          "material": 6
        }
      ]
    },
    {
      "name": "Explosive Orange",
      "primitives": [
        {
          "attributes": {
            "POSITION": 0,
            "NORMAL": 1
          },
          "indices": 2,
          "material": 7
        }
      ]
    },
    {
      "name": "Hazard Green",
      "primitives": [
        {
          "attributes": {
            "POSITION": 0,
            "NORMAL": 1
          },
          "indices": 2,
          "material": 8
        }
      ]
    },
    {
      "name": "Impact White",
      "primitives": [
        {
          "attributes": {
            "POSITION": 0,
            "NORMAL": 1
          },
          "indices": 2,
          "material": 9
        }
      ]
    },
    {
      "name": "Flanker Magenta",
      "primitives": [
        {
          "attributes": {
            "POSITION": 0,
            "NORMAL": 1
          },
          "indices": 2,
          "material": 10
        }
      ]
    }
  ],
  "materials": [
    {
      "name": "Vanguard Navy",
      "pbrMetallicRoughness": {
        "baseColorFactor": [
          0.08,
          0.2,
          0.42,
          1.0
        ],
        "metallicFactor": 0.25,
        "roughnessFactor": 0.62
      },
      "emissiveFactor": [
        0.01,
        0.03,
        0.08
      ]
    },
    {
      "name": "Gunner Ochre",
      "pbrMetallicRoughness": {
        "baseColorFactor": [
          0.78,
          0.48,
          0.1,
          1.0
        ],
        "metallicFactor": 0.25,
        "roughnessFactor": 0.62
      },
      "emissiveFactor": [
        0.06,
        0.025,
        0.0
      ]
    },
    {
      "name": "Interceptor Cyan",
      "pbrMetallicRoughness": {
        "baseColorFactor": [
          0.04,
          0.62,
          0.78,
          1.0
        ],
        "metallicFactor": 0.25,
        "roughnessFactor": 0.62
      },
      "emissiveFactor": [
        0.0,
        0.07,
        0.1
      ]
    },
    {
      "name": "Rifleman Gray",
      "pbrMetallicRoughness": {
        "baseColorFactor": [
          0.32,
          0.36,
          0.42,
          1.0
        ],
        "metallicFactor": 0.25,
        "roughnessFactor": 0.62
      },
      "emissiveFactor": [
        0.01,
        0.01,
        0.015
      ]
    },
    {
      "name": "Striker Crimson",
      "pbrMetallicRoughness": {
        "baseColorFactor": [
          0.68,
          0.08,
          0.12,
          1.0
        ],
        "metallicFactor": 0.25,
        "roughnessFactor": 0.62
      },
      "emissiveFactor": [
        0.08,
        0.0,
        0.0
      ]
    },
    {
      "name": "Artillery Violet",
      "pbrMetallicRoughness": {
        "baseColorFactor": [
          0.38,
          0.16,
          0.62,
          1.0
        ],
        "metallicFactor": 0.25,
        "roughnessFactor": 0.62
      },
      "emissiveFactor": [
        0.03,
        0.0,
        0.06
      ]
    },
    {
      "name": "Terrain Slate",
      "pbrMetallicRoughness": {
        "baseColorFactor": [
          0.2,
          0.24,
          0.28,
          1.0
        ],
        "metallicFactor": 0.25,
        "roughnessFactor": 0.62
      },
      "emissiveFactor": [
        0.0,
        0.0,
        0.0
      ]
    },
    {
      "name": "Explosive Orange",
      "pbrMetallicRoughness": {
        "baseColorFactor": [
          0.92,
          0.32,
          0.04,
          1.0
        ],
        "metallicFactor": 0.25,
        "roughnessFactor": 0.62
      },
      "emissiveFactor": [
        0.12,
        0.018,
        0.0
      ]
    },
    {
      "name": "Hazard Green",
      "pbrMetallicRoughness": {
        "baseColorFactor": [
          0.2,
          0.92,
          0.22,
          0.78
        ],
        "metallicFactor": 0.25,
        "roughnessFactor": 0.62
      },
      "emissiveFactor": [
        0.03,
        0.25,
        0.04
      ],
      "alphaMode": "BLEND",
      "doubleSided": true
    },
    {
      "name": "Impact White",
      "pbrMetallicRoughness": {
        "baseColorFactor": [
          0.92,
          0.98,
          1.0,
          0.88
        ],
        "metallicFactor": 0.25,
        "roughnessFactor": 0.62
      },
      "emissiveFactor": [
        0.4,
        0.52,
        0.6
      ],
      "alphaMode": "BLEND",
      "doubleSided": true
    },
    {
      "name": "Flanker Magenta",
      "pbrMetallicRoughness": {
        "baseColorFactor": [
          0.82,
          0.12,
          0.72,
          1.0
        ],
        "metallicFactor": 0.25,
        "roughnessFactor": 0.62
      },
      "emissiveFactor": [
        0.1,
        0.02,
        0.09
      ]
    }
  ],
  "buffers": [
    {
      "byteLength": 648,
      "uri": "data:application/octet-stream;base64,"
    }
  ],
  "bufferViews": [
    {
      "buffer": 0,
      "byteOffset": 0,
      "byteLength": 288,
      "target": 34962
    },
    {
      "buffer": 0,
      "byteOffset": 288,
      "byteLength": 288,
      "target": 34962
    },
    {
      "buffer": 0,
      "byteOffset": 576,
      "byteLength": 72,
      "target": 34963
    }
  ],
  "accessors": [
    {
      "bufferView": 0,
      "componentType": 5126,
      "count": 24,
      "type": "VEC3",
      "min": [
        -0.5,
        -0.5,
        -0.5
      ],
      "max": [
        0.5,
        0.5,
        0.5
      ]
    },
    {
      "bufferView": 1,
      "componentType": 5126,
      "count": 24,
      "type": "VEC3"
    },
    {
      "bufferView": 2,
      "componentType": 5123,
      "count": 36,
      "type": "SCALAR"
    }
  ]
}
